<svg width="32" height="32" viewBox="0 0 32 32" fill="none" xmlns="http://www.w3.org/2000/svg">
<path d="M15.1666 21.0003V16.8337H11C10.5416 16.8337 10.1666 16.4587 10.1666 16.0003C10.1666 15.542 10.5416 15.167 11 15.167H15.1666V11.0003C15.1666 10.542 15.5416 10.167 16 10.167C16.4583 10.167 16.8333 10.542 16.8333 11.0003V15.167H21C21.4583 15.167 21.8333 15.542 21.8333 16.0003C21.8333 16.4587 21.4583 16.8337 21 16.8337H16.8333V21.0003C16.8333 21.4587 16.4583 21.8337 16 21.8337C15.5416 21.8337 15.1666 21.4587 15.1666 21.0003ZM29.3333 16.0003C29.3333 23.3649 23.3645 29.3337 16 29.3337C8.63538 29.3337 2.66663 23.3649 2.66663 16.0003C2.66663 8.63574 8.63538 2.66699 16 2.66699C23.3645 2.66699 29.3333 8.63574 29.3333 16.0003ZM16 4.33366C9.55725 4.33366 4.33329 9.55762 4.33329 16.0003C4.33329 22.443 9.55725 27.667 16 27.667C22.4427 27.667 27.6666 22.443 27.6666 16.0003C27.6666 9.55762 22.4427 4.33366 16 4.33366Z" fill="#9198A4"/>
</svg>
