<svg width="22" height="25" viewBox="0 0 22 25" fill="none" xmlns="http://www.w3.org/2000/svg">
<path d="M20.0428 20.9634H5.55107C5.24764 20.9634 4.95664 20.8428 4.74208 20.6283C4.52752 20.4137 4.40698 20.1227 4.40698 19.8193V1.5139C4.40698 1.21047 4.52752 0.919468 4.74208 0.70491C4.95664 0.490353 5.24764 0.369816 5.55107 0.369816H20.0428C20.3463 0.369816 20.6373 0.490353 20.8518 0.70491C21.0664 0.919468 21.1869 1.21047 21.1869 1.5139V19.8193C21.1869 20.1227 21.0664 20.4137 20.8518 20.6283C20.6373 20.8428 20.3463 20.9634 20.0428 20.9634ZM19.6615 1.89526H5.93243V19.4379H19.6615V1.89526Z" fill="#8A8D8D"/>
<path d="M17.3734 23.6328C17.3734 23.9362 17.2529 24.2272 17.0384 24.4418C16.8238 24.6563 16.5328 24.7769 16.2294 24.7769H1.73759C1.43416 24.7769 1.14316 24.6563 0.928601 24.4418C0.714043 24.2272 0.593506 23.9362 0.593506 23.6328V5.32738C0.593506 5.02395 0.714043 4.73295 0.928601 4.51839C1.14316 4.30383 1.43416 4.18329 1.73759 4.18329H2.11896V23.2514H17.3734V23.6328Z" fill="#8A8D8D"/>
</svg>
