<svg width="25" height="24" viewBox="0 0 25 24" fill="none" xmlns="http://www.w3.org/2000/svg">
<g clip-path="url(#clip0_574_25)">
<path d="M8.61333 4.00003C7.64633 3.98774 6.70553 4.31437 5.95419 4.92324C5.20284 5.53211 4.68835 6.3848 4.5 7.33336H1.92V8.6667H4.5C4.69158 9.61863 5.21064 10.4734 5.96697 11.0823C6.72331 11.6913 7.66911 12.016 8.64 12H11.8333V4.00003H8.61333ZM10.5667 10.6667H8.61333C7.88067 10.6867 7.16938 10.4187 6.63216 9.92007C6.09494 9.42149 5.77463 8.73214 5.74 8.00003C5.76951 7.26611 6.08827 6.5737 6.62664 6.07405C7.16502 5.5744 7.87926 5.30811 8.61333 5.33336H10.5667V10.6667Z" fill="#F8FDFF" fill-opacity="0.5"/>
<path d="M23.1133 15.3334H20.5933C20.3994 14.3826 19.8796 13.5294 19.1239 12.9209C18.3681 12.3123 17.4236 11.9867 16.4533 12H13.1667V13.3334H9.83333C9.65652 13.3334 9.48695 13.4036 9.36193 13.5286C9.23691 13.6536 9.16667 13.8232 9.16667 14C9.16667 14.1768 9.23691 14.3464 9.36193 14.4714C9.48695 14.5965 9.65652 14.6667 9.83333 14.6667H13.1667V17.3334H9.83333C9.65652 17.3334 9.48695 17.4036 9.36193 17.5286C9.23691 17.6536 9.16667 17.8232 9.16667 18C9.16667 18.1768 9.23691 18.3464 9.36193 18.4714C9.48695 18.5965 9.65652 18.6667 9.83333 18.6667H13.1667V20H16.46C17.432 20.0176 18.3794 19.6936 19.1371 19.0845C19.8948 18.4754 20.4149 17.6198 20.6067 16.6667H23.1133V15.3334ZM16.4467 18.6667H14.5V13.3334H16.46C17.1941 13.3081 17.9083 13.5744 18.4467 14.074C18.9851 14.5737 19.3038 15.2661 19.3333 16C19.3038 16.7339 18.9851 17.4264 18.4467 17.926C17.9083 18.4257 17.1941 18.6919 16.46 18.6667H16.4467Z" fill="#F8FDFF" fill-opacity="0.5"/>
</g>
<defs>
<clipPath id="clip0_574_25">
<rect width="24" height="24" fill="white" transform="translate(0.5)"/>
</clipPath>
</defs>
</svg>
