<svg width="35" height="32" viewBox="0 0 35 32" fill="none" xmlns="http://www.w3.org/2000/svg">
<g clip-path="url(#clip0_452_1822)">
<path d="M32.4824 0.300781L19.2664 10.1161L21.7108 4.32501L32.4824 0.300781Z" fill="#E2761B" stroke="#E2761B" stroke-width="0.0668254" stroke-linecap="round" stroke-linejoin="round"/>
<path d="M1.97339 0.300781L15.0832 10.209L12.7583 4.32501L1.97339 0.300781Z" fill="#E4761B" stroke="#E4761B" stroke-width="0.0668254" stroke-linecap="round" stroke-linejoin="round"/>
<path d="M27.7275 23.0527L24.2078 28.4455L31.739 30.5171L33.9042 23.1724L27.7275 23.0527Z" fill="#E4761B" stroke="#E4761B" stroke-width="0.0668254" stroke-linecap="round" stroke-linejoin="round"/>
<path d="M0.579025 23.1724L2.7308 30.5171L10.262 28.4455L6.74233 23.0527L0.579025 23.1724Z" fill="#E4761B" stroke="#E4761B" stroke-width="0.0668254" stroke-linecap="round" stroke-linejoin="round"/>
<path d="M9.83721 13.9409L7.73823 17.1157L15.216 17.4479L14.9507 9.41211L9.83721 13.9409Z" fill="#E4761B" stroke="#E4761B" stroke-width="0.0668254" stroke-linecap="round" stroke-linejoin="round"/>
<path d="M24.6191 13.941L19.4394 9.31934L19.2664 17.448L26.7314 17.1159L24.6191 13.941Z" fill="#E4761B" stroke="#E4761B" stroke-width="0.0668254" stroke-linecap="round" stroke-linejoin="round"/>
<path d="M10.2617 28.446L14.751 26.2541L10.8724 23.2256L10.2617 28.446Z" fill="#E4761B" stroke="#E4761B" stroke-width="0.0668254" stroke-linecap="round" stroke-linejoin="round"/>
<path d="M19.7046 26.2541L24.2073 28.446L23.5832 23.2256L19.7046 26.2541Z" fill="#E4761B" stroke="#E4761B" stroke-width="0.0668254" stroke-linecap="round" stroke-linejoin="round"/>
<path d="M24.2073 28.4458L19.7046 26.2539L20.0635 29.1895L20.0234 30.4245L24.2073 28.4458Z" fill="#D7C1B3" stroke="#D7C1B3" stroke-width="0.0668254" stroke-linecap="round" stroke-linejoin="round"/>
<path d="M10.2617 28.4458L14.4456 30.4245L14.4189 29.1895L14.751 26.2539L10.2617 28.4458Z" fill="#D7C1B3" stroke="#D7C1B3" stroke-width="0.0668254" stroke-linecap="round" stroke-linejoin="round"/>
<path d="M14.5119 21.2861L10.7664 20.1835L13.4093 18.9746L14.5119 21.2861Z" fill="#233447" stroke="#233447" stroke-width="0.0668254" stroke-linecap="round" stroke-linejoin="round"/>
<path d="M19.9445 21.2861L21.0471 18.9746L23.7034 20.1835L19.9445 21.2861Z" fill="#233447" stroke="#233447" stroke-width="0.0668254" stroke-linecap="round" stroke-linejoin="round"/>
<path d="M10.2618 28.4455L10.8993 23.0527L6.74213 23.1724L10.2618 28.4455Z" fill="#CD6116" stroke="#CD6116" stroke-width="0.0668254" stroke-linecap="round" stroke-linejoin="round"/>
<path d="M23.5703 23.0527L24.2078 28.4455L27.7275 23.1724L23.5703 23.0527Z" fill="#CD6116" stroke="#CD6116" stroke-width="0.0668254" stroke-linecap="round" stroke-linejoin="round"/>
<path d="M26.7314 17.1162L19.2664 17.4483L19.9573 21.2868L21.06 18.9753L23.7163 20.1842L26.7314 17.1162Z" fill="#CD6116" stroke="#CD6116" stroke-width="0.0668254" stroke-linecap="round" stroke-linejoin="round"/>
<path d="M10.7666 20.1842L13.4229 18.9753L14.5121 21.2868L15.2158 17.4483L7.73804 17.1162L10.7666 20.1842Z" fill="#CD6116" stroke="#CD6116" stroke-width="0.0668254" stroke-linecap="round" stroke-linejoin="round"/>
<path d="M7.73804 17.1162L10.8728 23.2254L10.7666 20.1842L7.73804 17.1162Z" fill="#E4751F" stroke="#E4751F" stroke-width="0.0668254" stroke-linecap="round" stroke-linejoin="round"/>
<path d="M23.7167 20.1842L23.5837 23.2254L26.7318 17.1162L23.7167 20.1842Z" fill="#E4751F" stroke="#E4751F" stroke-width="0.0668254" stroke-linecap="round" stroke-linejoin="round"/>
<path d="M15.2153 17.4482L14.5117 21.2867L15.3884 25.8154L15.5876 19.852L15.2153 17.4482Z" fill="#E4751F" stroke="#E4751F" stroke-width="0.0668254" stroke-linecap="round" stroke-linejoin="round"/>
<path d="M19.2667 17.4482L18.9086 19.8386L19.0676 25.8154L19.9577 21.2867L19.2667 17.4482Z" fill="#E4751F" stroke="#E4751F" stroke-width="0.0668254" stroke-linecap="round" stroke-linejoin="round"/>
<path d="M19.9573 21.2872L19.0671 25.8159L19.7047 26.2543L23.5832 23.2258L23.7162 20.1846L19.9573 21.2872Z" fill="#F6851B" stroke="#F6851B" stroke-width="0.0668254" stroke-linecap="round" stroke-linejoin="round"/>
<path d="M10.7664 20.1846L10.8726 23.2258L14.7512 26.2543L15.3887 25.8159L14.5119 21.2872L10.7664 20.1846Z" fill="#F6851B" stroke="#F6851B" stroke-width="0.0668254" stroke-linecap="round" stroke-linejoin="round"/>
<path d="M20.0235 30.425L20.0636 29.1901L19.7315 28.8974H14.7243L14.4189 29.1901L14.4456 30.425L10.2617 28.4463L11.7225 29.6411L14.6842 31.7H19.7716L22.7466 29.6411L24.2075 28.4463L20.0235 30.425Z" fill="#C0AD9E" stroke="#C0AD9E" stroke-width="0.0668254" stroke-linecap="round" stroke-linejoin="round"/>
<path d="M19.7054 26.2538L19.0679 25.8154H15.3891L14.7516 26.2538L14.4195 29.1894L14.7249 28.8967H19.7321L20.0642 29.1894L19.7054 26.2538Z" fill="#161616" stroke="#161616" stroke-width="0.0668254" stroke-linecap="round" stroke-linejoin="round"/>
<path d="M33.0403 10.7536L34.169 5.33474L32.4823 0.300781L19.7046 9.78397L24.619 13.9412L31.5655 15.9733L33.1065 14.1804L32.4422 13.7026L33.5047 12.733L32.6815 12.0955L33.744 11.2849L33.0403 10.7536Z" fill="#763D16" stroke="#763D16" stroke-width="0.0668254" stroke-linecap="round" stroke-linejoin="round"/>
<path d="M0.29995 5.33474L1.42863 10.7536L0.711594 11.2849L1.77412 12.0955L0.964194 12.733L2.02672 13.7026L1.36247 14.1804L2.8901 15.9733L9.8366 13.9412L14.7509 9.78397L1.97326 0.300781L0.29995 5.33474Z" fill="#763D16" stroke="#763D16" stroke-width="0.0668254" stroke-linecap="round" stroke-linejoin="round"/>
<path d="M31.566 15.9736L24.6195 13.9414L26.7318 17.1163L23.5837 23.2255L27.7275 23.1727H33.9042L31.566 15.9736Z" fill="#F6851B" stroke="#F6851B" stroke-width="0.0668254" stroke-linecap="round" stroke-linejoin="round"/>
<path d="M9.83702 13.9414L2.89052 15.9736L0.579033 23.1727H6.74234L10.8728 23.2255L7.73804 17.1163L9.83702 13.9414Z" fill="#F6851B" stroke="#F6851B" stroke-width="0.0668254" stroke-linecap="round" stroke-linejoin="round"/>
<path d="M19.2667 17.4484L19.705 9.78416L21.7245 4.3252H12.7585L14.7513 9.78416L15.2157 17.4484L15.3754 19.8654L15.3888 25.8156H19.0675L19.0943 19.8654L19.2667 17.4484Z" fill="#F6851B" stroke="#F6851B" stroke-width="0.0668254" stroke-linecap="round" stroke-linejoin="round"/>
</g>
<defs>
<clipPath id="clip0_452_1822">
<rect width="33.9359" height="31.4654" fill="white" transform="translate(0.267303 0.267578)"/>
</clipPath>
</defs>
</svg>
