<svg width="37" height="32" viewBox="0 0 37 32" fill="none" xmlns="http://www.w3.org/2000/svg">
<path d="M36.7802 18.3092C38.2248 15.0685 31.0406 5.97107 24.1687 2.22277C19.8347 -0.705589 15.3446 -0.315142 14.4075 0.973336C12.4162 3.78456 21.0451 6.20534 26.8238 8.97752C25.5743 9.52414 24.403 10.5003 23.7392 11.7106C21.5918 9.36796 16.8673 7.33763 11.323 8.97752C7.57468 10.0708 4.49015 12.6868 3.27976 16.5912C3.00645 16.4741 2.65504 16.396 2.34269 16.396C1.05421 16.396 0 17.4502 0 18.7387C0 20.0272 1.05421 21.0814 2.34269 21.0814C2.57696 21.0814 3.31881 20.9252 3.31881 20.9252L15.3446 21.0033C10.5421 28.6561 6.7157 29.7493 6.7157 31.0769C6.7157 32.4044 10.3469 32.053 11.7134 31.5454C18.273 29.2027 25.301 21.8232 26.5114 19.7148C31.5872 20.3786 35.8431 20.4176 36.7802 18.3092Z" fill="url(#paint0_linear_452_1855)"/>
<path fill-rule="evenodd" clip-rule="evenodd" d="M26.8625 8.97747C27.1358 8.86034 27.0967 8.46989 27.0187 8.15753C26.8625 7.45472 23.9341 4.56541 21.201 3.27693C17.4527 1.51992 14.7195 1.59801 14.3291 2.41795C15.071 3.97974 18.624 5.4244 22.2942 6.98619C23.817 7.6109 25.4178 8.27466 26.8625 8.97747Z" fill="url(#paint1_linear_452_1855)"/>
<path fill-rule="evenodd" clip-rule="evenodd" d="M22.0994 24.6738C21.3576 24.4005 20.4986 24.1272 19.5225 23.8929C20.5376 22.0578 20.7719 19.2856 19.7958 17.5677C18.4292 15.1469 16.7112 13.8584 12.6896 13.8584C10.5031 13.8584 4.56831 14.6002 4.45117 19.5589C4.45117 20.0665 4.45117 20.5351 4.49022 21.0036H15.3447C13.9 23.3072 12.5334 25.0252 11.3231 26.3137C12.7677 26.6651 13.9391 26.9774 15.0323 27.2898C16.0475 27.5631 17.0236 27.7974 17.9997 28.0707C19.4834 26.9774 20.889 25.8061 22.0994 24.6738Z" fill="url(#paint2_linear_452_1855)"/>
<path d="M3.12657 20.4184C3.55606 24.1667 5.70353 25.6504 10.0765 26.0799C14.4496 26.5094 16.9484 26.2361 20.2672 26.5094C23.0394 26.7436 25.5383 28.1883 26.4363 27.6807C27.2562 27.2512 26.7877 25.6504 25.6945 24.6352C24.2498 23.3077 22.2585 22.4097 18.7835 22.0583C19.4863 20.1451 19.2911 17.451 18.1979 16.0063C16.6361 13.8979 13.7467 12.9608 10.0765 13.3513C6.25015 13.8198 2.57994 15.733 3.12657 20.4184Z" fill="url(#paint3_linear_452_1855)"/>
<defs>
<linearGradient id="paint0_linear_452_1855" x1="10.9258" y1="15.2856" x2="36.5182" y2="22.5431" gradientUnits="userSpaceOnUse">
<stop stop-color="#8797FF"/>
<stop offset="1" stop-color="#AAA8FF"/>
</linearGradient>
<linearGradient id="paint1_linear_452_1855" x1="31.2582" y1="15.8585" x2="12.7921" y2="-2.65276" gradientUnits="userSpaceOnUse">
<stop stop-color="#3B22A0"/>
<stop offset="1" stop-color="#5156D8" stop-opacity="0"/>
</linearGradient>
<linearGradient id="paint2_linear_452_1855" x1="22.6089" y1="25.3428" x2="4.87024" y2="15.1443" gradientUnits="userSpaceOnUse">
<stop stop-color="#3B1E8F"/>
<stop offset="1" stop-color="#6A6FFB" stop-opacity="0"/>
</linearGradient>
<linearGradient id="paint3_linear_452_1855" x1="9.6925" y1="17.3911" x2="21.6826" y2="32.6257" gradientUnits="userSpaceOnUse">
<stop stop-color="#8898FF"/>
<stop offset="0.9839" stop-color="#5F47F1"/>
</linearGradient>
</defs>
</svg>
