<svg width="25" height="24" viewBox="0 0 25 24" fill="none" xmlns="http://www.w3.org/2000/svg">
<g clip-path="url(#clip0_452_1073)">
<path d="M19.8347 3.14357L3.79846 9.38075C3.65314 9.43727 3.50209 9.49901 3.39669 9.60441C3.18233 9.81877 3.06089 10.1188 3.07392 10.4401C3.11678 10.9412 3.43371 11.3638 3.88932 11.5211L10.7259 13.7527L12.9579 20.5895C13.1155 21.0454 13.5378 21.3621 14.0163 21.3822C14.3371 21.3954 14.6371 21.2742 14.8514 21.0599C14.9571 20.9543 15.042 20.8263 15.0982 20.6808L21.3351 4.64397C21.4996 4.22276 21.3938 3.73763 21.0672 3.41101C20.7182 3.10726 20.2556 2.97782 19.8347 3.14357ZM4.23597 10.4457C4.23573 10.4464 4.23571 10.4449 4.23597 10.4457L18.9362 4.72595L11.0063 12.6559L4.23597 10.4457ZM14.0408 20.262L11.8228 13.4724L19.7304 5.56487L14.0408 20.262Z" fill="#9198A4"/>
</g>
<defs>
<clipPath id="clip0_452_1073">
<rect width="24.8" height="24" fill="white" transform="translate(0.199951)"/>
</clipPath>
</defs>
</svg>
