<svg width="20" height="20" viewBox="0 0 20 20" fill="none" xmlns="http://www.w3.org/2000/svg">
<path d="M18.3332 4.64318C18.3332 6.28753 17.0013 7.61937 15.357 7.61937C14.505 7.61937 13.735 7.26223 13.1955 6.65583L7.57796 9.49809C7.604 9.66178 7.61889 9.82919 7.61889 10.0003C7.61889 10.1715 7.604 10.3389 7.57796 10.5026L13.1955 13.3113C13.735 12.7384 14.505 12.3813 15.357 12.3813C17.0013 12.3813 18.3332 13.7131 18.3332 15.3575C18.3332 17.0018 17.0013 18.3337 15.357 18.3337C13.7126 18.3337 12.3808 17.0018 12.3808 15.3575C12.3808 14.9966 12.444 14.6171 12.5631 14.327L7.14269 11.6186C6.6107 12.4371 5.6918 12.9765 4.64269 12.9765C2.99909 12.9765 1.6665 11.6447 1.6665 10.0003C1.6665 8.35598 2.99909 7.02414 4.64269 7.02414C5.6918 7.02414 6.6107 7.56357 7.14269 8.38202L12.5631 5.67369C12.444 5.35003 12.3808 5.00405 12.3808 4.64318C12.3808 2.99958 13.7126 1.66699 15.357 1.66699C17.0013 1.66699 18.3332 2.99958 18.3332 4.64318ZM4.60921 11.786C5.62856 11.786 6.39493 10.9862 6.39493 10.0003C6.39493 9.01446 5.62856 8.21461 4.60921 8.21461C3.65646 8.21461 2.8235 9.01446 2.8235 10.0003C2.8235 10.9862 3.65646 11.786 4.60921 11.786ZM15.357 2.85747C14.3711 2.85747 13.5713 3.65695 13.5713 4.64318C13.5713 5.62905 14.3711 6.4289 15.357 6.4289C16.3428 6.4289 17.1427 5.62905 17.1427 4.64318C17.1427 3.65695 16.3428 2.85747 15.357 2.85747ZM15.357 17.1432C16.3428 17.1432 17.1427 16.3433 17.1427 15.3575C17.1427 14.3716 16.3428 13.5718 15.357 13.5718C14.3711 13.5718 13.5713 14.3716 13.5713 15.3575C13.5713 16.3433 14.3711 17.1432 15.357 17.1432Z" fill="#FAFAFA"/>
</svg>
