<svg width="25" height="24" viewBox="0 0 25 24" fill="none" xmlns="http://www.w3.org/2000/svg">
<path d="M12.5 17C11.1167 17 9.93767 16.5123 8.963 15.537C7.98833 14.5617 7.50067 13.3827 7.5 12C7.49933 10.6173 7.987 9.43834 8.963 8.463C9.939 7.48767 11.118 7 12.5 7C13.882 7 15.0613 7.48767 16.038 8.463C17.0147 9.43834 17.502 10.6173 17.5 12C17.498 13.3827 17.0103 14.562 16.037 15.538C15.0637 16.514 13.8847 17.0013 12.5 17ZM2.5 13C2.21667 13 1.97933 12.904 1.788 12.712C1.59667 12.52 1.50067 12.2827 1.5 12C1.49933 11.7173 1.59533 11.48 1.788 11.288C1.98067 11.096 2.218 11 2.5 11H4.5C4.78333 11 5.021 11.096 5.213 11.288C5.405 11.48 5.50067 11.7173 5.5 12C5.49933 12.2827 5.40333 12.5203 5.212 12.713C5.02067 12.9057 4.78333 13.0013 4.5 13H2.5ZM20.5 13C20.2167 13 19.9793 12.904 19.788 12.712C19.5967 12.52 19.5007 12.2827 19.5 12C19.4993 11.7173 19.5953 11.48 19.788 11.288C19.9807 11.096 20.218 11 20.5 11H22.5C22.7833 11 23.021 11.096 23.213 11.288C23.405 11.48 23.5007 11.7173 23.5 12C23.4993 12.2827 23.4033 12.5203 23.212 12.713C23.0207 12.9057 22.7833 13.0013 22.5 13H20.5ZM12.5 5C12.2167 5 11.9793 4.904 11.788 4.712C11.5967 4.52 11.5007 4.28267 11.5 4V2C11.5 1.71667 11.596 1.47934 11.788 1.288C11.98 1.09667 12.2173 1.00067 12.5 1C12.7827 0.999337 13.0203 1.09534 13.213 1.288C13.4057 1.48067 13.5013 1.718 13.5 2V4C13.5 4.28334 13.404 4.521 13.212 4.713C13.02 4.905 12.7827 5.00067 12.5 5ZM12.5 23C12.2167 23 11.9793 22.904 11.788 22.712C11.5967 22.52 11.5007 22.2827 11.5 22V20C11.5 19.7167 11.596 19.4793 11.788 19.288C11.98 19.0967 12.2173 19.0007 12.5 19C12.7827 18.9993 13.0203 19.0953 13.213 19.288C13.4057 19.4807 13.5013 19.718 13.5 20V22C13.5 22.2833 13.404 22.521 13.212 22.713C13.02 22.905 12.7827 23.0007 12.5 23ZM6.15 7.05L5.075 6C4.875 5.81667 4.779 5.58334 4.787 5.3C4.795 5.01667 4.891 4.775 5.075 4.575C5.275 4.375 5.51667 4.275 5.8 4.275C6.08333 4.275 6.31667 4.375 6.5 4.575L7.55 5.65C7.73333 5.85 7.825 6.08334 7.825 6.35C7.825 6.61667 7.73333 6.85 7.55 7.05C7.36667 7.25 7.13767 7.346 6.863 7.338C6.58833 7.33 6.35067 7.234 6.15 7.05ZM18.5 19.425L17.45 18.35C17.2667 18.15 17.175 17.9127 17.175 17.638C17.175 17.3633 17.2667 17.134 17.45 16.95C17.6333 16.75 17.8627 16.6543 18.138 16.663C18.4133 16.6717 18.6507 16.7673 18.85 16.95L19.925 18C20.125 18.1833 20.221 18.4167 20.213 18.7C20.205 18.9833 20.109 19.225 19.925 19.425C19.725 19.625 19.4833 19.725 19.2 19.725C18.9167 19.725 18.6833 19.625 18.5 19.425ZM17.45 7.05C17.25 6.86667 17.154 6.63767 17.162 6.363C17.17 6.08834 17.266 5.85067 17.45 5.65L18.5 4.575C18.6833 4.375 18.9167 4.279 19.2 4.287C19.4833 4.295 19.725 4.391 19.925 4.575C20.125 4.775 20.225 5.01667 20.225 5.3C20.225 5.58334 20.125 5.81667 19.925 6L18.85 7.05C18.65 7.23334 18.4167 7.325 18.15 7.325C17.8833 7.325 17.65 7.23334 17.45 7.05ZM5.075 19.425C4.875 19.225 4.775 18.9833 4.775 18.7C4.775 18.4167 4.875 18.1833 5.075 18L6.15 16.95C6.35 16.7667 6.58733 16.675 6.862 16.675C7.13667 16.675 7.366 16.7667 7.55 16.95C7.75 17.1333 7.846 17.3627 7.838 17.638C7.83 17.9133 7.734 18.1507 7.55 18.35L6.5 19.425C6.31667 19.625 6.08333 19.721 5.8 19.713C5.51667 19.705 5.275 19.609 5.075 19.425Z" fill="#F8FDFF" fill-opacity="0.5"/>
</svg>
