<svg width="176" height="132" viewBox="0 0 176 132" fill="none" xmlns="http://www.w3.org/2000/svg">
<path d="M96.3305 23.1352C85.8329 21.084 74.9724 21.979 64.9522 25.7211C64.4657 25.9137 64.0219 26.2003 63.6461 26.5644C63.2704 26.9286 62.97 27.3632 62.7622 27.8435C62.3426 28.8133 62.3254 29.9102 62.7144 30.8928C63.1035 31.8753 63.867 32.6631 64.8368 33.0827C65.8067 33.5024 66.9036 33.5196 67.8862 33.1305C76.5138 29.8684 85.8726 29.0426 94.9382 30.7436C95.4696 30.8834 96.0242 30.9117 96.5671 30.8265C97.1099 30.7414 97.6293 30.5447 98.0924 30.2489C98.5555 29.9531 98.9522 29.5645 99.2577 29.1077C99.5631 28.6509 99.7706 28.1358 99.8671 27.5948C99.9636 27.0539 99.947 26.4988 99.8182 25.9645C99.6895 25.4303 99.4515 24.9286 99.1193 24.4909C98.787 24.0532 98.3677 23.6891 97.8877 23.4215C97.4077 23.154 96.8775 22.9888 96.3305 22.9363V23.1352Z" fill="#F8FDFF"/>
<path d="M124.477 60.9294C128.212 60.9294 131.24 57.9015 131.24 54.1664C131.24 50.4313 128.212 47.4034 124.477 47.4034C120.742 47.4034 117.714 50.4313 117.714 54.1664C117.714 57.9015 120.742 60.9294 124.477 60.9294Z" fill="#F8FDFF"/>
<path d="M174.851 63.7142C174.39 63.0323 173.767 62.4754 173.038 62.0936C172.309 61.7117 171.497 61.5167 170.674 61.5262C166.656 60.9685 162.97 58.9931 160.281 55.9566C155.106 50.2998 150.707 43.9784 147.202 37.1595L161.524 14.7819C162.393 13.4851 162.925 11.9923 163.073 10.4382C163.221 8.88413 162.979 7.31777 162.369 5.88057C161.759 4.57306 160.837 3.43566 159.683 2.56851C158.53 1.70135 157.181 1.13104 155.756 0.907778C146.648 -0.319608 137.379 0.970228 128.952 4.63737C124.123 6.76449 119.579 9.48753 115.426 12.743C107.293 9.09587 98.6317 6.76279 89.7666 5.83084C54.5095 2.39962 22.2858 25.2745 18.1584 55.6085C16.5498 54.8849 15.1092 53.835 13.9279 52.5252C12.7466 51.2155 11.8503 49.6745 11.2959 48.0001C10.9413 46.852 10.8203 45.6445 10.9398 44.4488C11.0594 43.2531 11.4172 42.0934 11.9921 41.0382C12.5076 40.1523 13.2445 39.4155 14.1304 38.8999C14.7345 38.5342 15.2606 38.0531 15.6787 37.4841C16.0968 36.9151 16.3988 36.2693 16.5673 35.5835C16.7359 34.8978 16.7677 34.1856 16.661 33.4876C16.5543 32.7896 16.3112 32.1194 15.9455 31.5153C15.5798 30.9113 15.0987 30.3852 14.5296 29.967C13.9606 29.5489 13.3148 29.2469 12.6291 29.0784C11.9434 28.9098 11.2312 28.878 10.5331 28.9847C9.8351 29.0914 9.16493 29.3346 8.56087 29.7003C6.15364 31.1778 4.16713 33.2499 2.79242 35.7173C1.51433 38.033 0.71089 40.5803 0.429117 43.2102C0.147343 45.84 0.392894 48.4997 1.1514 51.0336C2.08504 54.104 3.6333 56.9525 5.70208 59.406C7.77085 61.8595 10.3169 63.8666 13.1856 65.3055L17.7605 67.593C18.3321 79.698 21.4141 91.5521 26.811 102.403L27.6564 104.292C31.9695 113.414 37.4708 121.925 44.0169 129.604C44.4829 130.134 45.0565 130.559 45.6996 130.851C46.3427 131.142 47.0404 131.294 47.7465 131.294H70.2235C71.038 131.29 71.839 131.086 72.5561 130.7C73.2733 130.314 73.8846 129.758 74.3364 129.08C74.7882 128.402 75.0666 127.624 75.1472 126.814C75.2277 126.003 75.108 125.185 74.7985 124.432L72.8591 119.956L78.727 120.603C85.3413 121.257 92.0039 121.257 98.6182 120.603C100.458 123.587 102.447 126.57 104.635 129.504C105.093 130.131 105.692 130.642 106.382 130.996C107.073 131.35 107.837 131.537 108.614 131.543H130.195C131.016 131.542 131.824 131.339 132.547 130.95C133.27 130.561 133.885 129.999 134.338 129.315C134.791 128.631 135.068 127.845 135.143 127.027C135.219 126.21 135.091 125.387 134.77 124.631C133.925 122.642 133.08 120.504 132.433 118.664C131.538 116.028 130.842 113.691 130.295 111.453C135.787 108.488 140.827 104.754 145.263 100.364C150.218 100.963 155.227 100.963 160.181 100.364C161.041 100.234 161.852 99.8806 162.532 99.3396C163.213 98.7986 163.74 98.0887 164.06 97.2805L175.299 68.3886C175.615 67.6329 175.74 66.8107 175.661 65.9952C175.583 65.1797 175.305 64.3962 174.851 63.7142ZM156.054 90.7662C152.15 90.9884 148.234 90.8051 144.368 90.2192C139.966 89.4755 135.715 88.014 131.787 85.8928C130.623 85.3159 129.28 85.217 128.045 85.6174C126.809 86.0177 125.78 86.8854 125.175 88.035C124.571 89.1847 124.441 90.525 124.812 91.7695C125.184 93.014 126.027 94.0639 127.162 94.6947C129.24 95.7844 131.383 96.7475 133.577 97.5789C130.865 99.8942 127.855 101.834 124.626 103.347L119.355 105.734C119.355 105.734 121.791 116.625 123.432 121.448H111.597C110.404 119.758 104.387 109.713 104.387 109.713L101.055 110.16C94.0563 111.169 86.9648 111.369 79.9205 110.757C76.6384 110.458 71.1684 109.762 66.8918 109.016L59.1839 107.674C59.1839 107.674 62.3168 119.758 62.9135 121.299H50.0837C44.8429 114.882 40.4012 107.852 36.8561 100.364L35.961 98.4243C29.4998 85.9871 26.7713 71.9474 28.104 57.9955C30.7893 32.1867 58.5375 12.6933 88.7223 15.5278C97.5031 16.5121 106.049 19.0018 113.984 22.8875L117.067 24.3296L119.554 21.9924C123.426 18.5322 127.802 15.6817 132.533 13.5387C138.791 10.8242 145.628 9.71326 152.424 10.3064L135.616 36.6124L136.859 39.0988C141.202 47.8466 146.742 55.9472 153.319 63.1672C156.374 66.1528 159.991 68.5022 163.961 70.0794L156.054 90.7662Z" fill="#F8FDFF"/>
</svg>
