<svg width="579" height="200" viewBox="0 0 579 200" fill="none" xmlns="http://www.w3.org/2000/svg">
<path fill-rule="evenodd" clip-rule="evenodd" d="M126.199 0C195.569 0 251.804 56.243 251.804 125.622H200.246C200.246 84.7218 167.094 51.5655 126.199 51.5655C85.3046 51.5655 52.1529 84.7218 52.1529 125.622H0.594727C0.594727 56.243 56.8298 0 126.199 0ZM52.1529 125.622C52.1529 166.523 85.3046 199.679 126.199 199.679C167.094 199.679 200.246 166.523 200.246 125.622H52.1529Z" fill="#F8FDFF" fill-opacity="0.5"/>
<path d="M330.223 129.105C322.099 129.105 315.531 126.441 310.52 121.113C305.455 115.785 302.923 108.637 302.923 99.6684C302.923 90.6474 305.429 83.4727 310.441 78.1445C315.399 72.8691 321.994 70.2313 330.223 70.2313C336.818 70.2313 342.436 71.9986 347.079 75.5332C351.721 79.0677 354.622 84.1849 355.783 90.8848H344.942C343.992 87.1919 342.225 84.3959 339.64 82.4968C337.108 80.5448 333.969 79.5689 330.223 79.5689C325.212 79.5689 321.255 81.3625 318.354 84.9499C315.505 88.4844 314.081 93.3906 314.081 99.6684C314.081 105.999 315.505 110.932 318.354 114.466C321.202 118.001 325.159 119.768 330.223 119.768C334.127 119.768 337.477 118.607 340.273 116.286C343.069 113.965 344.757 110.747 345.338 106.632H356.02C355.335 113.807 352.539 119.346 347.633 123.25C342.779 127.154 336.976 129.105 330.223 129.105ZM397.138 94.1292V71.4974H407.821V127.839H397.138V103.783H370.946V127.839H360.263V71.4974H370.946V94.1292H397.138ZM465.279 127.839H453.963L449.532 115.416H424.842L420.49 127.839H409.491L430.936 71.4974H443.438L465.279 127.839ZM430.223 100.222L428.087 106.315H446.287L444.071 100.222C442.225 95.5272 439.904 89.0911 437.108 80.9141C434.892 87.4557 432.597 93.8918 430.223 100.222ZM487.234 129.105C479.585 129.105 473.65 127.391 469.429 123.962C465.262 120.533 463.152 115.627 463.099 109.243H473.623C473.676 113.253 474.863 116.128 477.184 117.869C479.558 119.61 483.014 120.48 487.551 120.48C491.244 120.48 494.066 119.794 496.018 118.423C497.97 116.998 498.946 114.967 498.946 112.329C498.946 110.114 498.102 108.426 496.413 107.265C494.778 106.104 491.771 105.076 487.392 104.179L482.645 103.229C470.564 100.961 464.523 95.2634 464.523 86.1368C464.523 81.2834 466.37 77.4323 470.063 74.5836C473.755 71.6821 478.873 70.2313 485.414 70.2313C492.853 70.2313 498.471 71.814 502.269 74.9792C506.12 78.1445 508.151 82.5759 508.362 88.2734H497.996C497.785 85.0554 496.704 82.6814 494.752 81.1515C492.853 79.6216 489.793 78.8567 485.572 78.8567C482.302 78.8567 479.796 79.4634 478.055 80.6767C476.314 81.8901 475.444 83.6046 475.444 85.8203C475.444 88.0888 476.235 89.8297 477.817 91.043C479.453 92.2564 482.328 93.2851 486.443 94.1292L491.349 95.0787C497.943 96.3976 502.691 98.3759 505.593 101.014C508.547 103.599 510.024 107.186 510.024 111.776C510.024 117.262 508.019 121.535 504.01 124.595C500.001 127.602 494.409 129.105 487.234 129.105ZM548.856 98.3232L558.272 71.4974H573.782V127.839H563.574V110.668C563.574 100.117 563.68 90.8056 563.891 82.7342C562.73 86.6908 561.306 91.0166 559.618 95.7118L548.223 127.839H539.439L527.965 95.7118C525.96 89.856 524.562 85.5829 523.771 82.8924C523.982 90.9111 524.087 100.17 524.087 110.668V127.839H513.8V71.4974H529.31L539.043 98.8771C539.676 100.723 541.285 105.814 543.87 114.15C545.559 108.294 547.22 103.018 548.856 98.3232Z" fill="#F8FDFF" fill-opacity="0.5"/>
</svg>
