<svg width="141" height="21" viewBox="0 0 141 21" fill="none" xmlns="http://www.w3.org/2000/svg">
<path d="M4.37825 0.159541H0V20.9945H4.37825V12.4641H20.9778V20.9945H25.3561V0.159541H20.9778V8.72429H4.37825V0.159541Z" fill="#1C1D1C"/>
<path fill-rule="evenodd" clip-rule="evenodd" d="M62.0126 20.8948H57.6343V0.00518417H74.3815C78.5206 0.0119374 81.8724 3.39656 81.8724 7.53567C81.8724 11.6843 78.5056 15.0386 74.357 15.0318L62.0126 15.0187V20.8948ZM77.072 7.50835C77.072 5.34714 75.32 3.59512 73.1588 3.59512H62.0126V11.4216H73.1588C75.32 11.4216 77.072 9.66957 77.072 7.50835Z" fill="#1C1D1C"/>
<path d="M83.7074 0.159614V3.74955H93.8006V20.9946H98.1788V3.74955H108.272V0.159614H83.7074Z" fill="#1C1D1C"/>
<path d="M110.13 0.159614H114.508V20.9946H110.13V0.159614Z" fill="#1C1D1C"/>
<path d="M141 4.53786V0.159614L126.811 0.159626C121.058 0.159632 116.394 4.82369 116.394 10.5771C116.394 16.3305 121.058 20.9946 126.811 20.9946H141V16.6163H126.811C123.476 16.6163 120.772 13.9125 120.772 10.5771C120.772 7.24172 123.476 4.53786 126.811 4.53786H141Z" fill="#1C1D1C"/>
<path d="M44.5991 0.157656H38.4144L27.265 20.9948H32.2306L34.841 16.1163L36.4229 13.1598L41.5068 3.65857L46.5906 13.1598L48.1725 16.1163L50.7823 20.9937H55.7479L44.5991 0.157656Z" fill="#1C1D1C"/>
<path d="M34.2005 16.1163V13.1598H36.4229H46.5906H48.8125V16.1163H48.1725H34.841H34.2005Z" fill="#1C1D1C"/>
</svg>
