<svg width="1259" height="188" viewBox="0 0 1259 188" fill="none" xmlns="http://www.w3.org/2000/svg">
<path d="M39.5201 0.796467H0.332642V187.769H39.5201V111.217H188.095V187.769H227.282V0.796467H188.095V77.6563H39.5201V0.796467Z" fill="#F8FDFF"/>
<path fill-rule="evenodd" clip-rule="evenodd" d="M555.376 187.769H516.189V0.796311H666.084C703.131 0.856756 733.131 31.1508 733.131 68.1979C733.131 105.331 702.997 135.353 665.865 135.292L555.376 135.174V187.769ZM690.165 67.9534C690.165 48.6094 674.484 32.9281 655.14 32.9281H555.376V102.979H655.14C674.484 102.979 690.165 87.2974 690.165 67.9534Z" fill="#F8FDFF"/>
<path d="M745.447 0.79631V33.0123H835.786V187.769H874.973V33.0123H965.312V0.79631H745.447Z" fill="#F8FDFF"/>
<path d="M981.944 0.79631H1021.13V187.769H981.944V0.79631Z" fill="#F8FDFF"/>
<path d="M1258.24 40.0856V0.79631L1131.49 0.796426C1079.86 0.796472 1038.01 42.6506 1038.01 94.2803C1038.01 145.91 1079.86 187.764 1131.49 187.764H1258.24V148.475H1131.39C1101.46 148.475 1077.19 124.211 1077.19 94.2802C1077.19 64.3493 1101.46 40.0856 1131.39 40.0856H1258.24Z" fill="#F8FDFF"/>
<path fill-rule="evenodd" clip-rule="evenodd" d="M344.161 0.796625H399.517L499.305 187.759H454.86L431.501 143.994H312.177L288.813 187.769H244.368L344.161 0.796625ZM371.839 32.2104L417.342 117.465H326.336L371.839 32.2104Z" fill="#F8FDFF"/>
</svg>
