<svg width="1021" height="1252" viewBox="0 0 1021 1252" fill="none" xmlns="http://www.w3.org/2000/svg">
<path fill-rule="evenodd" clip-rule="evenodd" d="M532.23 128.749H294.208C278.631 128.749 264.196 136.911 256.18 150.252L7.23143 564.552C3.09353 571.439 0.907654 579.319 0.907654 587.35V1206.73C0.907654 1231.2 20.7646 1251.04 45.2594 1251.04H387.669C403.245 1251.04 417.68 1242.87 425.697 1229.53L489.678 1123.06H727.699C743.276 1123.06 757.711 1114.89 765.727 1101.55L1014.68 687.252C1018.81 680.366 1021 672.485 1021 664.454V45.0693C1021 20.6027 1001.14 0.768555 976.648 0.768555H634.239C618.662 0.768555 604.227 8.93075 596.211 22.2713L532.23 128.749ZM532.23 128.749L347.262 436.572C343.124 443.458 340.938 451.338 340.938 459.37V1078.75C340.938 1103.22 360.795 1123.06 385.29 1123.06H489.678L674.645 815.232C678.783 808.346 680.969 800.466 680.969 792.434V173.05C680.969 148.583 661.112 128.749 636.617 128.749H532.23Z" fill="#F8FDFF"/>
</svg>
