<svg width="536" height="200" viewBox="0 0 536 200" fill="none" xmlns="http://www.w3.org/2000/svg">
<path fill-rule="evenodd" clip-rule="evenodd" d="M42.7905 24.9611L64.1858 12.4806L85.5811 0V23.6854V99.8446L64.1858 99.8446V36.166L21.3953 61.1271V138.562L42.7905 151.043V99.8446L64.1858 99.8446V163.523V187.209L42.7905 174.728L21.3953 162.247L0 149.767V49.9223L21.3953 37.4417L42.7905 24.9611ZM106.976 99.8446L85.5811 99.8446V176.004V199.689L106.976 187.209L128.372 174.728L149.767 162.247L171.162 149.767V49.9223L149.767 37.4417L128.372 24.9611L106.976 12.4806V36.166V99.8446ZM106.976 99.8446H128.372V48.6465L149.767 61.1271V99.8446V138.562L106.976 163.523V99.8446Z" fill="#F8FDFF" fill-opacity="0.5"/>
<path d="M261.531 94.1345V71.5028H272.214V127.845H261.531V103.789H235.338V127.845H224.655V71.5028H235.338V94.1345H261.531ZM320.547 71.5028V81.0778H289.686V94.3719H317.619V103.551H289.686V118.27H320.389V127.845H279.003V71.5028H320.547ZM347.563 129.032C340.23 129.032 334.453 127.08 330.233 123.176C326.065 119.219 323.981 113.706 323.981 106.637V71.5028H334.664V106.717C334.664 110.99 335.772 114.234 337.988 116.45C340.203 118.665 343.395 119.773 347.563 119.773C351.73 119.773 354.922 118.665 357.138 116.45C359.353 114.234 360.461 110.99 360.461 106.717V71.5028H371.144V106.637C371.144 113.812 369.06 119.351 364.893 123.255C360.725 127.106 354.948 129.032 347.563 129.032ZM421.344 112.889L421.819 121.277C421.871 123.967 422.452 126.157 423.56 127.845H412.56C411.611 126.262 411.109 124.02 411.057 121.119L410.819 114.946C410.661 111.517 409.87 109.143 408.445 107.824C407.074 106.453 404.858 105.767 401.798 105.767H387.871V127.845H377.188V71.5028H402.748C409.026 71.5028 413.905 72.9272 417.387 75.7759C420.869 78.6247 422.61 82.5021 422.61 87.4083C422.61 94.1609 419.471 98.645 413.193 100.861C416.042 101.758 418.073 103.182 419.286 105.134C420.553 107.033 421.238 109.618 421.344 112.889ZM387.871 80.2864V97.3789H402.115C405.122 97.3789 407.443 96.6404 409.078 95.1632C410.767 93.6334 411.611 91.444 411.611 88.5953C411.611 85.9048 410.74 83.8474 408.999 82.423C407.311 80.9986 404.884 80.2864 401.719 80.2864H387.871ZM438.123 127.845H427.44V71.5028H438.123V127.845ZM466.448 129.111C458.799 129.111 452.864 127.396 448.644 123.967C444.476 120.538 442.366 115.632 442.313 109.249H452.838C452.891 113.258 454.077 116.133 456.399 117.874C458.773 119.615 462.228 120.485 466.765 120.485C470.458 120.485 473.28 119.8 475.232 118.428C477.184 117.004 478.16 114.973 478.16 112.335C478.16 110.119 477.316 108.431 475.628 107.27C473.992 106.11 470.985 105.081 466.607 104.184L461.859 103.235C449.778 100.966 443.738 95.2688 443.738 86.1422C443.738 81.2888 445.584 77.4377 449.277 74.5889C452.97 71.6874 458.087 70.2367 464.628 70.2367C472.067 70.2367 477.685 71.8193 481.484 74.9846C485.335 78.1499 487.366 82.5813 487.577 88.2788H477.21C476.999 85.0607 475.918 82.6868 473.966 81.1569C472.067 79.627 469.007 78.8621 464.787 78.8621C461.516 78.8621 459.01 79.4687 457.269 80.6821C455.528 81.8955 454.658 83.61 454.658 85.8257C454.658 88.0941 455.449 89.835 457.032 91.0484C458.667 92.2617 461.542 93.2905 465.657 94.1345L470.563 95.0841C477.158 96.403 481.906 98.3813 484.807 101.019C487.761 103.604 489.238 107.191 489.238 111.781C489.238 117.267 487.234 121.541 483.224 124.6C479.215 127.607 473.623 129.111 466.448 129.111ZM486.754 71.5028H533.601V81.0778H515.558V127.845H504.796V81.0778H486.754V71.5028Z" fill="#F8FDFF" fill-opacity="0.5"/>
</svg>
