<svg width="474" height="199" viewBox="0 0 474 199" fill="none" xmlns="http://www.w3.org/2000/svg">
<path fill-rule="evenodd" clip-rule="evenodd" d="M134.318 170.696L112.157 183.523V118.154L97.0679 126.888V192.257L86.469 198.393L74.9067 191.775L73.9399 32.3495L59.8172 40.5244V183.138L37.656 170.454V53.3522L22.5665 62.0867V161.818L0.405334 149.134V49.2589L85.5039 0L134.318 27.9388V170.696ZM149.406 62.495V36.5748L171.568 49.2589V75.3228L149.406 62.495ZM149.406 71.1683L171.568 83.9962V149.134L149.406 161.962V71.1683ZM97.0679 32.3495L112.157 41.0835V92.4985L97.0679 101.233V32.3495Z" fill="#F8FDFF" fill-opacity="0.5"/>
<path d="M260.116 97.6801L269.533 70.8544H285.043V127.196H274.835V110.025C274.835 99.4737 274.94 90.1626 275.151 82.0911C273.991 86.0477 272.566 90.3736 270.878 95.0687L259.483 127.196H250.699L239.225 95.0687C237.221 89.213 235.823 84.9398 235.031 82.2494C235.242 90.2681 235.348 99.5265 235.348 110.025V127.196H225.061V70.8544H240.571L250.304 98.234C250.937 100.08 252.546 105.171 255.131 113.506C256.819 107.651 258.481 102.375 260.116 97.6801ZM338.14 120.391C332.97 125.772 326.165 128.462 317.724 128.462C309.283 128.462 302.478 125.772 297.308 120.391C292.138 114.957 289.553 107.835 289.553 99.0253C289.553 90.2153 292.138 83.0934 297.308 77.6597C302.478 72.2787 309.283 69.5883 317.724 69.5883C326.165 69.5883 332.97 72.2787 338.14 77.6597C343.257 82.9879 345.816 90.1098 345.816 99.0253C345.816 107.941 343.257 115.063 338.14 120.391ZM300.711 99.0253C300.711 105.198 302.267 110.077 305.38 113.665C308.492 117.252 312.607 119.046 317.724 119.046C322.894 119.046 327.035 117.252 330.148 113.665C333.208 110.13 334.737 105.25 334.737 99.0253C334.737 92.8003 333.208 87.9205 330.148 84.3859C327.035 80.7986 322.894 79.005 317.724 79.005C312.607 79.005 308.492 80.7986 305.38 84.3859C302.267 87.9732 300.711 92.853 300.711 99.0253ZM387.564 85.5729V70.8544H397.851V127.196H385.982L370.313 102.111C366.04 95.4116 362.69 89.7669 360.264 85.1772C360.475 91.0858 360.58 100.186 360.58 112.478V127.196H350.293V70.8544H362.163L377.91 95.9392C382.605 103.536 385.929 109.181 387.881 112.873C387.67 105.013 387.564 95.9128 387.564 85.5729ZM455.386 127.196H444.071L439.639 114.773H414.95L410.598 127.196H399.598L421.043 70.8544H433.546L455.386 127.196ZM420.331 99.5793L418.194 105.672H436.395L434.179 99.5793C432.333 94.8841 430.011 88.448 427.216 80.2711C425 86.8126 422.705 93.2487 420.331 99.5793ZM467.816 127.196H457.134V70.8544H467.816V127.196Z" fill="#F8FDFF" fill-opacity="0.5"/>
</svg>
